<?xml version="1.0" standalone="no"?><!DOCTYPE svg PUBLIC "-//W3C//DTD SVG 1.1//EN" "http://www.w3.org/Graphics/SVG/1.1/DTD/svg11.dtd"><svg t="1747581037017" class="icon" viewBox="0 0 1024 1024" version="1.1" xmlns="http://www.w3.org/2000/svg" p-id="7891" xmlns:xlink="http://www.w3.org/1999/xlink" width="200" height="200"><path d="M1023.168 395.776a111.104 111.104 0 0 0-87.872-110.976L180.416 125.376a116.8 116.8 0 0 0-23.04-2.368c-52.032 0-83.264 17.728-86.72 88.896v91.968A114.496 114.496 0 0 0 0 409.344v377.344c0 62.976 51.264 114.24 114.24 114.24h795.52c62.976 0 114.24-51.264 114.24-114.24V409.344c0-4.608-0.256-9.152-0.832-13.568zM157.376 186.304c3.136-1.024 6.592 0.32 9.856 1.024l510.336 107.776H132.864l-0.256-70.016c3.264-18.56 4.032-32 24.768-38.784z m801.344 600.384a49.024 49.024 0 0 1-49.024 48.96H114.24a49.024 49.024 0 0 1-48.96-48.96V409.344a48.64 48.64 0 0 1 13.76-33.984 48.64 48.64 0 0 1 35.2-14.976h795.52c25.472 0 46.464 19.584 48.768 44.48 0.128 1.472 0.256 2.944 0.256 4.48v377.344z" fill="#231815" p-id="7892"></path><path d="M181.504 598.016m-47.936 0a47.936 47.936 0 1 0 95.872 0 47.936 47.936 0 1 0-95.872 0Z" fill="#231815" p-id="7893"></path></svg>